<?xml version="1.0" encoding="utf-8"?>
<!-- Generator: Adobe Illustrator 27.6.1, SVG Export Plug-In . SVG Version: 6.00 Build 0)  -->
<svg version="1.1" id="Layer_1" xmlns="http://www.w3.org/2000/svg" xmlns:xlink="http://www.w3.org/1999/xlink" x="0px" y="0px"
	 viewBox="0 0 20 20" style="enable-background:new 0 0 20 20;" xml:space="preserve">
<style type="text/css">
	.st0{fill:#04BDE5;}
	.st1{fill:#E50027;}
</style>
<g>
	<path class="st0" d="M4.24,10c0-0.36,0.03-0.71,0.1-1.05H1.69C1.65,9.3,1.62,9.65,1.62,10c0,4.63,3.75,8.38,8.38,8.38
		c0.35,0,0.7-0.02,1.05-0.07v-2.65c-0.34,0.06-0.69,0.1-1.05,0.1C6.82,15.76,4.24,13.18,4.24,10z"/>
	<path class="st1" d="M10,1.62c-3.52,0-6.52,2.17-7.77,5.24h2.94C6.2,5.28,7.98,4.24,10,4.24c3.18,0,5.76,2.58,5.76,5.76
		c0,2.02-1.04,3.8-2.62,4.83v2.94c3.07-1.24,5.24-4.25,5.24-7.77C18.38,5.37,14.63,1.62,10,1.62z"/>
</g>
</svg>
