<?xml version="1.0" encoding="utf-8"?>
<!-- Generator: Adobe Illustrator 27.6.1, SVG Export Plug-In . SVG Version: 6.00 Build 0)  -->
<svg version="1.1" id="Layer_1" xmlns="http://www.w3.org/2000/svg" xmlns:xlink="http://www.w3.org/1999/xlink" x="0px" y="0px"
	 viewBox="0 0 78 20" style="enable-background:new 0 0 78 20;" xml:space="preserve">
<style type="text/css">
	.st0{fill:#191919;}
</style>
<g>
	<g>
		<path class="st0" d="M10.13,5.09H2.05v1.64h8.19v8.18h1.62V6.82C11.86,5.87,11.2,5.09,10.13,5.09z"/>
	</g>
	<g>
		<path class="st0" d="M20.79,5.09H13.5v1.63l7.36,0.01v6.55l-5.61-0.01c-0.38,0-0.8-0.09-0.9-0.46c-0.1-0.37-0.16-0.88,1.07-1.17
			c0.53-0.11,2.92-0.62,3.8-0.81V9.2c-0.93,0.19-3.51,0.72-4.52,0.91c-1.89,0.36-2.2,2.09-1.94,3.09c0.27,1.02,1.04,1.7,2.21,1.7
			h5.82c0.94,0,1.71-0.76,1.71-1.71V6.83C22.49,5.89,21.85,5.09,20.79,5.09z"/>
	</g>
	<g>
		<path class="st0" d="M25.35,14.91V6.74h5.6c0.39,0,0.81,0.09,0.91,0.46c0.1,0.37,0.16,0.88-1.08,1.17
			C30.24,8.48,27.85,9,26.99,9.19v1.65c0.9-0.19,3.49-0.73,4.51-0.92c1.9-0.36,2.21-2.1,1.95-3.11c-0.27-1.02-1.05-1.71-2.22-1.71
			h-5.8c-0.95,0-1.72,0.77-1.72,1.71v8.09H25.35z"/>
	</g>
	<g>
		<path class="st0" d="M43.1,10.42l-1.58-0.54l-5.11-1.75c-0.39-0.14-0.5-0.47-0.42-0.83c0.08-0.35,0.35-0.56,0.7-0.56h7.41V5.11
			h-7.41c-1.11,0-2.03,0.73-2.29,1.81c-0.26,1.08,0.2,2.26,1.23,2.65l5.76,1.97l0.9,0.31c0.47,0.16,0.5,0.47,0.42,0.83
			c-0.08,0.34-0.31,0.6-1.06,0.6h-7.31v1.63h7.67c1.11,0,2.03-0.77,2.29-1.85C44.56,11.98,44.23,10.8,43.1,10.42z"/>
	</g>
	<g>
		<path class="st0" d="M46.91,14.89h7.27v-1.62h-7.35V6.73h5.62c0.38,0,0.8,0.09,0.9,0.46c0.1,0.37,0.16,0.88-1.07,1.17
			c-0.53,0.11-2.92,0.62-3.82,0.82v1.64c0.95-0.19,3.53-0.73,4.54-0.92c1.89-0.36,2.2-2.09,1.94-3.09c-0.27-1.02-1.04-1.7-2.21-1.7
			h-5.82c-0.94,0-1.71,0.76-1.71,1.71v6.35C45.2,14.1,45.85,14.89,46.91,14.89z"/>
	</g>
	<g>
		<path class="st0" d="M57.56,14.91h8.08v-1.64h-8.19V5.1h-1.62v8.08C55.83,14.13,56.5,14.91,57.56,14.91z"/>
	</g>
	<g>
		<path class="st0" d="M68.19,14.91h8.08v-1.64h-8.19V5.1h-1.62v8.08C66.46,14.13,67.13,14.91,68.19,14.91z"/>
	</g>
</g>
</svg>
